<svg width="68" height="66" xmlns="http://www.w3.org/2000/svg" xmlns:xlink="http://www.w3.org/1999/xlink" xmlns:svgjs="http://svgjs.com/svgjs" viewBox="0.394 0 67.212 66" fill="#fff" opacity=".529"><svg xmlns="http://www.w3.org/2000/svg" width="68" height="66" viewBox="1.752 1.885 65.293 64.115"><path paint-order="stroke fill markers" fill-rule="evenodd" d="M5.084 1.885h58.63a3.331 3.331 0 0 1 3.331 3.33V53.02a3.331 3.331 0 0 1-3.331 3.33H5.084a3.331 3.331 0 0 1-3.332-3.33V5.216a3.331 3.331 0 0 1 3.332-3.331zm3.164 3.497H60.55a3.331 3.331 0 0 1 3.332 3.332v32.48a3.331 3.331 0 0 1-3.332 3.33H8.25a3.331 3.331 0 0 1-3.332-3.33V8.714a3.331 3.331 0 0 1 3.331-3.332zm17.67 50.894s1.099 6.342-3.129 8.54V66h23.167v-1.184s-2.96-2.705-3.044-8.54c-.084-5.834-15.81-3.635-16.994 0zm8.032-6.721s-1.142-.803-1.649.423c0 0-.477 1.274.719 2.542 0 0 .633.326 1.068.109 0 0 .816.295 1.142-.03.326-.327.385-.77.603-1.024 0 0-.958-.588-.102-1.793 0 0-.15-.38-.627-.452-.475-.071-1.154.225-1.154.225zm.069-.479s.768.104 1.093-.618c0 0-.768-.372-1.093.618z"/></svg></svg>