<svg width="45" height="68" xmlns="http://www.w3.org/2000/svg" xmlns:xlink="http://www.w3.org/1999/xlink" xmlns:svgjs="http://svgjs.com/svgjs" viewBox="0.411 0 44.178 68" fill="#fff" opacity=".529"><svg xmlns="http://www.w3.org/2000/svg" width="45" height="68" viewBox="1.853 1.453 43.139 66.4"><path paint-order="stroke fill markers" fill-rule="evenodd" d="M5.236 1.453h36.372a3.384 3.384 0 0 1 3.384 3.384V64.47a3.383 3.383 0 0 1-3.384 3.383H5.236a3.383 3.383 0 0 1-3.383-3.383V4.837a3.384 3.384 0 0 1 3.383-3.384zm-.845 7.05h38.063v52.866H4.391V8.502zm19.454-3.807a.564.564 0 1 1 0 1.128.564.564 0 0 1 0-1.128zm-.352 58.27a1.715 1.715 0 1 1 0 3.431 1.715 1.715 0 0 1 0-3.43z"/></svg></svg>