<svg width="28" height="30" xmlns="http://www.w3.org/2000/svg" xmlns:xlink="http://www.w3.org/1999/xlink" xmlns:svgjs="http://svgjs.com/svgjs" viewBox="0.289 0 27.423 30" fill="#fff"><svg xmlns="http://www.w3.org/2000/svg" width="28" height="30" viewBox="2.013 2.004 26.5 28.991"><path paint-order="stroke fill markers" fill-rule="evenodd" d="M28.328 4.22c-.303.657-.668 1.529-1.097 2.614a340.058 340.058 0 0 0-1.365 3.501c-.479 1.25-.952 2.52-1.418 3.807-.469 1.288-.892 2.45-1.27 3.484l-1.289 3.523a7.546 7.546 0 0 1-.68 1.23c-.253.366-.632.55-1.139.55H6.97c-.505 0-.904-.19-1.193-.569a3.651 3.651 0 0 1-.625-1.211L2.085 9.673c-.129-.504-.083-.934.132-1.286.214-.355.774-.53 1.684-.53h19.314l2.274-4.923c.225-.48.543-.77.946-.873a1.66 1.66 0 0 1 1.134.096c.355.165.626.43.816.794.189.367.17.79-.057 1.269zm-17.04 24.048c0 .758-.268 1.4-.799 1.93-.53.53-1.17.797-1.929.797-.783 0-1.439-.266-1.969-.797a2.626 2.626 0 0 1-.795-1.93 2.7 2.7 0 0 1 .795-1.95c.53-.543 1.186-.815 1.97-.815.758 0 1.398.272 1.928.814.53.545.799 1.194.799 1.951zm9.504 0c0 .758-.264 1.4-.794 1.93-.531.53-1.175.797-1.932.797-.784 0-1.441-.266-1.97-.797a2.626 2.626 0 0 1-.796-1.93c0-.757.266-1.406.796-1.95.529-.543 1.186-.815 1.97-.815.757 0 1.4.272 1.932.814.53.545.794 1.194.794 1.951z"/></svg></svg>