<svg width="31" height="57" xmlns="http://www.w3.org/2000/svg" xmlns:xlink="http://www.w3.org/1999/xlink" xmlns:svgjs="http://svgjs.com/svgjs" viewBox="0.429 0 30.143 57" fill="#fff" opacity=".529"><svg xmlns="http://www.w3.org/2000/svg" width="31" height="57" viewBox="1.17 1.316 29.267 55.345"><path paint-order="stroke fill markers" fill-rule="evenodd" d="M5.673 1.316h20.262a4.503 4.503 0 0 1 4.503 4.503v46.34a4.503 4.503 0 0 1-4.503 4.502H5.673A4.503 4.503 0 0 1 1.17 52.16V5.819a4.503 4.503 0 0 1 4.503-4.503zM3.61 9.008h24.765v38.835H3.609V9.008zm8.88-4.128h6.755a.688.688 0 0 1 0 1.376H12.49a.688.688 0 0 1 0-1.376zm3.503 45.152a2.064 2.064 0 1 1 0 4.128 2.064 2.064 0 0 1 0-4.128z"/></svg></svg>